<svg width="46" height="46" viewBox="0 0 46 46" fill="none" xmlns="http://www.w3.org/2000/svg">
<path d="M23.0948 3.90918C33.6388 3.90918 42.1857 12.4562 42.1857 23.0001C42.1857 33.544 33.6388 42.091 23.0948 42.091C19.7211 42.0964 16.4066 41.2036 13.4921 39.5042L4.01157 42.091L6.59266 32.6066C4.89184 29.6912 3.9983 26.3754 4.00393 23.0001C4.00393 12.4562 12.5509 3.90918 23.0948 3.90918ZM16.5887 14.0274L16.2068 14.0426C15.9597 14.0577 15.7181 14.1226 15.4967 14.2335C15.2896 14.3508 15.1005 14.4974 14.9354 14.6688C14.7063 14.8845 14.5765 15.0716 14.4371 15.253C13.731 16.1711 13.3508 17.2982 13.3566 18.4565C13.3604 19.3919 13.6048 20.3025 13.9866 21.154C14.7674 22.876 16.0522 24.6992 17.7475 26.3887C18.156 26.7954 18.5569 27.2039 18.9884 27.5838C21.0949 29.4384 23.6051 30.7759 26.3193 31.4898L27.4037 31.6559C27.7568 31.675 28.11 31.6483 28.4651 31.6311C29.0211 31.6024 29.564 31.4518 30.0554 31.1901C30.3054 31.0613 30.5494 30.9212 30.7866 30.7701C30.7866 30.7701 30.8687 30.7166 31.0252 30.5983C31.2829 30.4074 31.4414 30.2718 31.6552 30.0485C31.8137 29.8843 31.9511 29.6915 32.0561 29.4719C32.205 29.1607 32.3539 28.567 32.415 28.0725C32.4608 27.6945 32.4475 27.4884 32.4417 27.3605C32.4341 27.1562 32.2642 26.9443 32.079 26.8545L30.9679 26.3563C30.9679 26.3563 29.307 25.6327 28.2914 25.1707C28.1851 25.1243 28.0712 25.0978 27.9554 25.0925C27.8248 25.079 27.6928 25.0937 27.5683 25.1356C27.4439 25.1774 27.3298 25.2453 27.2337 25.3349C27.2242 25.3311 27.0963 25.4399 25.716 27.1123C25.6368 27.2187 25.5277 27.2992 25.4026 27.3434C25.2774 27.3876 25.142 27.3935 25.0135 27.3605C24.8891 27.3271 24.7673 27.285 24.6488 27.2345C24.4121 27.1352 24.33 27.097 24.1677 27.0283C23.0721 26.5501 22.0576 25.9041 21.1609 25.1135C20.9204 24.9035 20.697 24.6744 20.4679 24.4529C19.7169 23.7336 19.0623 22.9199 18.5207 22.0322L18.408 21.8508C18.3271 21.7289 18.2617 21.5975 18.2133 21.4595C18.1408 21.1788 18.3298 20.9535 18.3298 20.9535C18.3298 20.9535 18.7937 20.4457 19.0094 20.1708C19.2194 19.9035 19.3969 19.6439 19.5115 19.4587C19.7367 19.096 19.8074 18.7237 19.689 18.4355C19.1545 17.1296 18.6008 15.8295 18.0319 14.539C17.9193 14.2832 17.5852 14.0999 17.2817 14.0636C17.1786 14.0522 17.0755 14.0407 16.9724 14.0331C16.716 14.0204 16.4591 14.0229 16.203 14.0407L16.5868 14.0255L16.5887 14.0274Z" fill="#603DBD"/>
</svg>
