<svg width="22" height="23" viewBox="0 0 22 23" fill="none" xmlns="http://www.w3.org/2000/svg">
<path d="M11.0011 0.285156C17.0123 0.285156 21.885 5.15788 21.885 11.1691C21.885 17.1802 17.0123 22.053 11.0011 22.053C9.07768 22.0561 7.1881 21.5471 5.52651 20.5782L0.121556 22.053L1.59306 16.6458C0.623406 14.9837 0.113989 13.0933 0.117203 11.1691C0.117203 5.15788 4.98993 0.285156 11.0011 0.285156ZM7.29188 6.05363L7.0742 6.06234C6.93327 6.07092 6.79555 6.10794 6.66932 6.17117C6.55125 6.23803 6.44347 6.32162 6.34933 6.41933C6.21872 6.54232 6.14471 6.64898 6.06526 6.75237C5.66269 7.27578 5.44593 7.91838 5.44923 8.57869C5.45141 9.11201 5.59072 9.63117 5.8084 10.1166C6.25355 11.0983 6.98604 12.1377 7.95253 13.101C8.18544 13.3328 8.41401 13.5657 8.65998 13.7823C9.8609 14.8396 11.292 15.6021 12.8394 16.0091L13.4576 16.1038C13.659 16.1147 13.8603 16.0995 14.0628 16.0897C14.3797 16.0733 14.6892 15.9875 14.9694 15.8383C15.1119 15.7648 15.251 15.6849 15.3862 15.5988C15.3862 15.5988 15.433 15.5683 15.5223 15.5009C15.6692 15.392 15.7596 15.3147 15.8815 15.1874C15.9718 15.0938 16.0502 14.9839 16.11 14.8587C16.1949 14.6813 16.2798 14.3428 16.3146 14.0609C16.3408 13.8454 16.3331 13.7279 16.3299 13.6549C16.3255 13.5385 16.2287 13.4177 16.1231 13.3665L15.4896 13.0825C15.4896 13.0825 14.5427 12.67 13.9637 12.4066C13.9031 12.3801 13.8382 12.365 13.7722 12.3619C13.6977 12.3543 13.6224 12.3627 13.5515 12.3865C13.4805 12.4104 13.4155 12.4491 13.3607 12.5002C13.3553 12.498 13.2824 12.56 12.4955 13.5135C12.4503 13.5741 12.3881 13.62 12.3168 13.6452C12.2454 13.6704 12.1682 13.6738 12.0949 13.6549C12.024 13.6359 11.9546 13.6119 11.8871 13.5831C11.7521 13.5265 11.7053 13.5048 11.6128 13.4656C10.9881 13.193 10.4098 12.8247 9.89857 12.3739C9.76143 12.2542 9.63409 12.1236 9.50348 11.9973C9.0753 11.5873 8.70213 11.1234 8.39333 10.6173L8.32911 10.5139C8.28299 10.4444 8.2457 10.3694 8.2181 10.2907C8.17674 10.1307 8.28449 10.0023 8.28449 10.0023C8.28449 10.0023 8.54897 9.7128 8.67195 9.55607C8.79168 9.40369 8.8929 9.25567 8.9582 9.1501C9.08663 8.94331 9.1269 8.73107 9.05942 8.56672C8.75467 7.82226 8.43904 7.08107 8.1147 6.34532C8.05048 6.19947 7.86002 6.09499 7.68696 6.07431C7.62819 6.06778 7.56941 6.06125 7.51064 6.05689C7.36448 6.04963 7.21801 6.05108 7.07202 6.06125L7.29079 6.05254L7.29188 6.05363Z" fill="#603DBD"/>
</svg>
